<svg height="13" viewBox="-65 0 455 456" width="10" xmlns="http://www.w3.org/2000/svg"><path fill="#fff" d="M76.32 456h98.016c27.351 0 52.66-15.883 66.047-41.602l84.785-162.836-4.785-3.917c-.09-.079-.18-.157-.266-.235a36.42 36.42 0 00-27.37-9.816 37.237 37.237 0 00-26.27 13.898l-24.457 29.774a7 7 0 01-7.766 2.144 7 7 0 01-4.645-6.586l-.14-204.832c-.012-13.96-10.41-25.316-23.184-25.316-12.492 0-22.7 10.828-23.172 24.344 0 20.687-.011 43.207-.015 64.64-.008 48.477-.016 90.317 0 94.375a6.943 6.943 0 01-2.036 4.938 6.968 6.968 0 01-4.94 2.027h-.024a6.95 6.95 0 01-4.938-2.004 6.948 6.948 0 01-2.062-4.91c-.016-4.086-.008-45.902 0-94.402 0-20.922.007-42.891.011-63.172a6.585 6.585 0 01-.02-.48c0-.4.009-.782.02-1.18v-45.63C169.117 11.267 158.715 0 145.934 0h-.711c-12.782 0-23.387 11.176-23.387 25.145v204.972c0 3.863-3.137 7-7 7-3.867 0-7-3.137-7-7V51.645c0-13.97-10.184-25.333-22.965-25.333-12.855 0-23.035 11.364-23.035 25.333v178.472c0 3.863-3.137 7-7 7-3.867 0-7-3.137-7-7V124.914c0-13.973-10.629-24.914-23.414-24.914h-.668C11.004 100 .602 111.074.57 125 .437 182.488.52 283.844.605 374.57.645 419.523 34.613 456 76.32 456zm0 0"/></svg>